<svg width="56" height="48" fill="none" xmlns="http://www.w3.org/2000/svg"><path d="M51.595.199c2.292 0 3.438 1.082 3.438 3.247 0 1.146-.446 2.037-1.337 2.674-6.621 4.966-10.123 10.76-10.505 17.381 3.82.255 6.749 1.528 8.786 3.82 2.037 2.165 3.056 4.902 3.056 8.213 0 3.183-1.146 5.985-3.438 8.404-2.292 2.292-5.093 3.438-8.404 3.438-3.31 0-6.176-1.337-8.595-4.011-2.42-2.674-3.629-6.812-3.629-12.415 0-5.603 1.91-11.333 5.73-17.19 3.82-5.857 7.895-10.06 12.224-12.606 1.019-.637 1.91-.955 2.674-.955Zm-30.942 0c2.292 0 3.438 1.082 3.438 3.247 0 1.146-.446 2.037-1.337 2.674-6.621 4.966-10.123 10.76-10.505 17.381 3.82.255 6.749 1.528 8.786 3.82 2.037 2.165 3.056 4.902 3.056 8.213 0 3.183-1.146 5.985-3.438 8.404-2.292 2.292-5.093 3.438-8.404 3.438-3.31 0-6.176-1.337-8.595-4.011C1.234 40.691.025 36.553.025 30.95c0-5.603 1.91-11.333 5.73-17.19C9.575 7.903 13.65 3.7 17.98 1.154c1.019-.637 1.91-.955 2.674-.955Z" fill="#07A750"/></svg>