<svg width="18" height="18" viewBox="0 0 18 18" fill="none" xmlns="http://www.w3.org/2000/svg">
<path d="M4.47187 14.175H13.5281V12.825H4.47187V14.175ZM4.47187 10.35H13.5281V9H4.47187V10.35ZM1.6875 18C1.2375 18 0.84375 17.865 0.50625 17.595C0.16875 17.325 0 17.01 0 16.65V1.35C0 0.99 0.16875 0.675 0.50625 0.405C0.84375 0.135 1.2375 0 1.6875 0H11.8406L18 4.9275V16.65C18 17.01 17.8312 17.325 17.4937 17.595C17.1562 17.865 16.7625 18 16.3125 18H1.6875ZM10.9969 5.535V1.35H1.6875V16.65H16.3125V5.535H10.9969Z" fill="white"/>
</svg>
