<svg width="18" height="18" viewBox="0 0 18 18" fill="none" xmlns="http://www.w3.org/2000/svg">
<path d="M5.6475 10.1025H6.48V8.235H7.56C7.79588 8.235 7.99359 8.15522 8.15314 7.99565C8.31271 7.83609 8.3925 7.63838 8.3925 7.4025V6.3225C8.3925 6.08663 8.31271 5.88891 8.15314 5.72936C7.99359 5.56979 7.79588 5.49 7.56 5.49H5.6475V10.1025ZM6.48 7.4025V6.3225H7.56V7.4025H6.48ZM9.3825 10.1025H11.2725C11.4975 10.1025 11.6925 10.0227 11.8575 9.86315C12.0225 9.70359 12.105 9.50588 12.105 9.27V6.3225C12.105 6.08663 12.0225 5.88891 11.8575 5.72936C11.6925 5.56979 11.4975 5.49 11.2725 5.49H9.3825V10.1025ZM10.215 9.27V6.3225H11.2725V9.27H10.215ZM13.2075 10.1025H14.04V8.235H15.165V7.4025H14.04V6.3225H15.165V5.49H13.2075V10.1025ZM4.05 15.3C3.69 15.3 3.375 15.165 3.105 14.895C2.835 14.625 2.7 14.31 2.7 13.95V1.35C2.7 0.99 2.835 0.675 3.105 0.405C3.375 0.135 3.69 0 4.05 0H16.65C17.01 0 17.325 0.135 17.595 0.405C17.865 0.675 18 0.99 18 1.35V13.95C18 14.31 17.865 14.625 17.595 14.895C17.325 15.165 17.01 15.3 16.65 15.3H4.05ZM4.05 13.95H16.65V1.35H4.05V13.95ZM1.35 18C0.99 18 0.675 17.865 0.405 17.595C0.135 17.325 0 17.01 0 16.65V2.7H1.35V16.65H15.3V18H1.35Z" fill="white"/>
</svg>
