<svg width="30" height="30" viewBox="0 0 30 30" fill="none" xmlns="http://www.w3.org/2000/svg">
<rect width="30" height="30" rx="15" fill="#F4F4F4" fill-opacity="0.9"/>
<path d="M20.455 21.2249V19.8295C20.455 19.0894 20.1677 18.3796 19.6562 17.8562C19.1447 17.3328 18.451 17.0388 17.7277 17.0388H12.2732C11.5499 17.0388 10.8562 17.3328 10.3447 17.8562C9.83324 18.3796 9.5459 19.0894 9.5459 19.8295V21.2249" fill="#777777"/>
<path d="M15.0007 14.2481C16.5069 14.2481 17.728 12.9987 17.728 11.4574C17.728 9.91619 16.5069 8.66675 15.0007 8.66675C13.4945 8.66675 12.2734 9.91619 12.2734 11.4574C12.2734 12.9987 13.4945 14.2481 15.0007 14.2481Z" fill="#777777"/>
</svg>
