<svg width="34" height="34" viewBox="0 0 34 34" fill="none" xmlns="http://www.w3.org/2000/svg">
<path d="M31.9396 24.327V28.8432C31.9413 29.2624 31.8555 29.6774 31.6875 30.0616C31.5195 30.4457 31.2732 30.7906 30.9643 31.074C30.6553 31.3574 30.2906 31.5732 29.8934 31.7075C29.4963 31.8418 29.0754 31.8917 28.6579 31.854C24.0255 31.3506 19.5758 29.7677 15.6662 27.2324C12.0289 24.9211 8.94511 21.8373 6.63381 18.2C4.08964 14.2727 2.50636 9.80133 2.01222 5.14814C1.9746 4.73184 2.02407 4.31228 2.15749 3.91615C2.29091 3.52003 2.50535 3.15602 2.78715 2.84731C3.06895 2.5386 3.41195 2.29195 3.7943 2.12306C4.17665 1.95417 4.58998 1.86675 5.00797 1.86636H9.52418C10.2548 1.85917 10.963 2.11788 11.517 2.59427C12.0709 3.07066 12.4327 3.73222 12.535 4.45565C12.7256 5.90094 13.0791 7.32002 13.5888 8.68583C13.7913 9.22465 13.8351 9.81024 13.7151 10.3732C13.595 10.9362 13.3161 11.4529 12.9113 11.8622L10.9995 13.7741C13.1425 17.5429 16.2631 20.6635 20.0319 22.8065L21.9438 20.8947C22.3531 20.4899 22.8698 20.211 23.4328 20.0909C23.9958 19.9708 24.5813 20.0147 25.1202 20.2172C26.486 20.7269 27.9051 21.0804 29.3503 21.271C30.0816 21.3742 30.7495 21.7425 31.2269 22.306C31.7043 22.8694 31.958 23.5887 31.9396 24.327Z" stroke="#FEDB02" stroke-width="3" stroke-linecap="round" stroke-linejoin="round"/>
</svg>
